PathFileType	4	(X/Y/Z)	./resultDataOpenSim/trcMotMarkerGrf/sub10/qtm-13-03.trc
DataRate	CameraRate	NumFrames	NumMarkers	Units	OrigDataRate	OrigDataStartFrame	OrigNumFrames
250.000000	250.000000	6	24	m	250.000000	304	486
Frame#	Time	L.Toe.Tip			R.Toe.Tip			L.Ankle.Lat			R.Ankle.Lat			L.Ankle.Med			R.Ankle.Med			L.Heel			R.Heel			L.Knee.Lat			R.Knee.Lat			L.Knee.Med			R.Knee.Med			L.Thigh.Upper			R.Thigh.Upper			L.ASIS			R.ASIS			V.Sacral			L.Acromium			R.Acromium			C7			L.Elbow			R.Elbow			L.Wrist.Lat			R.Wrist.Lat
		X1	Y1	Z1	X2	Y2	Z2	X3	Y3	Z3	X4	Y4	Z4	X5	Y5	Z5	X6	Y6	Z6	X7	Y7	Z7	X8	Y8	Z8	X9	Y9	Z9	X10	Y10	Z10	X11	Y11	Z11	X12	Y12	Z12	X13	Y13	Z13	X14	Y14	Z14	X15	Y15	Z15	X16	Y16	Z16	X17	Y17	Z17	X18	Y18	Z18	X19	Y19	Z19	X20	Y20	Z20	X21	Y21	Z21	X22	Y22	Z22	X23	Y23	Z23	X24	Y24	Z24

304	1.212	0.017039144	0.021274985	-0.054229356	0.79119769	0.038212953	0.045529727	0.020382653	0.15585663	-0.10759369	0.64989718	0.053538739	0.097507433	0.054921362	0.15853343	-0.029777069	0.6656219	0.080932135	0.013223639	-0.016172776	0.20814188	-0.060112012	0.59762813	0.030739151	0.055342802	0.31722428	0.38910692	-0.14906322	0.68618106	0.44604235	0.12413235	0.34508245	0.34739986	-0.035277368	0.69166394	0.46036266	-0.0030805348	0.41780487	0.75626732	-0.17451383	0.53027913	0.82706436	0.19711991	0.50510415	0.86131755	-0.1255707	0.56652764	0.90879418	0.10352021	0.34149978	0.90372142	0.035392194	0.4859593	1.3774459	-0.13814102	0.42470367	1.3893305	0.14239059	0.38691463	1.3918977	-0.011053941	0.52863114	1.1432035	-0.3889441	0.22577076	1.1858657	0.32541253	0.78490507	1.1440425	-0.37244305	0.18305674	1.2665536	0.5615052
305	1.216	0.025521341	0.024907537	-0.057100589	0.79119941	0.038194733	0.045647724	0.029228138	0.15970676	-0.10854125	0.64988964	0.053507307	0.097639961	0.063877709	0.16167387	-0.030758068	0.66580032	0.080986753	0.013376046	-0.0070983186	0.21188279	-0.060567419	0.59762034	0.030817051	0.055363748	0.32845432	0.38926793	-0.150257	0.68875089	0.44579426	0.124536	0.35621143	0.34793121	-0.036433109	0.69478182	0.46001373	-0.0027012249	0.42492624	0.75705436	-0.17447292	0.53614571	0.82839499	0.197374	0.51204431	0.8624093	-0.12537716	0.57248197	0.90977413	0.10384208	0.3474989	0.90473857	0.034888294	0.49262881	1.3785054	-0.13827027	0.43097995	1.3902634	0.14257425	0.39334288	1.3933448	-0.01116071	0.53411559	1.1427919	-0.38814951	0.23386194	1.1843598	0.32556247	0.79035448	1.1428792	-0.37227981	0.19018945	1.2645782	0.56146676
306	1.22	0.034577206	0.028462487	-0.059956654	0.79120185	0.038179479	0.045773267	0.038261052	0.16352657	-0.10943373	0.64987459	0.053487184	0.097780283	0.073025037	0.16486067	-0.031703205	0.66597293	0.081048915	0.013530256	0.0019332403	0.21549099	-0.06094533	0.59761011	0.030893605	0.055396237	0.33982023	0.38953544	-0.15141089	0.6913402	0.44558979	0.12491585	0.36728258	0.34852636	-0.037450423	0.69771173	0.45972861	-0.0023246679	0.43194978	0.75792256	-0.17438614	0.5418843	0.82969435	0.19764514	0.51887764	0.86368456	-0.12524975	0.57837884	0.91075047	0.10419006	0.35341464	0.90581706	0.034389516	0.49924848	1.3796112	-0.13842084	0.43721351	1.3912315	0.14274504	0.39972327	1.3948297	-0.011296579	0.53950815	1.142362	-0.38733324	0.24198792	1.1828492	0.32565508	0.79571382	1.1415865	-0.37213643	0.1974298	1.26243	0.56141927
307	1.224	0.044165116	0.031906687	-0.062786214	0.79119995	0.038166613	0.045902817	0.04746965	0.16729554	-0.11029036	0.64985062	0.053479856	0.097925372	0.082357704	0.168073	-0.03262285	0.66613643	0.0811213	0.01369129	0.010977393	0.21895232	-0.061286127	0.59759798	0.030970798	0.055433579	0.35130514	0.38991205	-0.15254168	0.69393278	0.44542424	0.12528341	0.37836316	0.34918825	-0.038383643	0.70049146	0.45949109	-0.0019752967	0.43888834	0.75889915	-0.1742602	0.54747381	0.83095565	0.19792194	0.52558446	0.86513724	-0.12520951	0.58421895	0.91174145	0.10456176	0.35929546	0.90691783	0.033819066	0.50581944	1.3807589	-0.13859545	0.44340743	1.3922169	0.1429003	0.40604329	1.3963313	-0.011469764	0.54481355	1.1419261	-0.38648965	0.2501552	1.1813159	0.32569688	0.80098909	1.1401507	-0.37199278	0.20476832	1.2601032	0.56137027
308	1.228	0.054252986	0.035263441	-0.065580688	0.79118977	0.03815453	0.046030721	0.056856269	0.17100577	-0.1111238	0.64982538	0.053477538	0.098068198	0.091871532	0.17128314	-0.033521029	0.66629261	0.081202112	0.013857255	0.020076222	0.22225765	-0.061610621	0.59758972	0.031053786	0.055460887	0.36289969	0.39040152	-0.15369666	0.69650761	0.44528896	0.12564563	0.38951606	0.34992369	-0.039310819	0.7031553	0.45928802	-0.001664906	0.44575565	0.76000417	-0.17411099	0.55290395	0.83216446	0.19819437	0.53215306	0.86675731	-0.12527268	0.58999697	0.91275825	0.10494568	0.36518004	0.90806396	0.033160151	0.51234844	1.3819407	-0.13879218	0.44959351	1.3932006	0.14303226	0.41229837	1.3978368	-0.011683734	0.55003683	1.1414923	-0.38561822	0.25837453	1.1797362	0.32569293	0.80618372	1.1385782	-0.37183942	0.21218511	1.2575949	0.56133295
309	1.232	0.064795613	0.038566388	-0.068342713	0.79117117	0.038142322	0.046152784	0.066436253	0.17466035	-0.11194162	0.64980964	0.053470692	0.098201531	0.10156419	0.17445952	-0.034399234	0.66644519	0.081285923	0.014021581	0.029242456	0.22540415	-0.061918552	0.59759082	0.031149285	0.055465647	0.37457439	0.39101481	-0.15491628	0.69905004	0.44517673	0.12599956	0.40079866	0.3507407	-0.04032007	0.70571203	0.45911505	-0.0013894865	0.45256679	0.76124973	-0.1739603	0.55816959	0.83330719	0.19845015	0.53858768	0.86852887	-0.12544102	0.59570557	0.91380649	0.1053346	0.37105801	0.90929516	0.032478489	0.51884207	1.3831509	-0.13900874	0.45579217	1.3941812	0.14314032	0.41848675	1.3993391	-0.011936304	0.55517934	1.1410665	-0.38472905	0.26664322	1.1781134	0.32563823	0.81128292	1.1368755	-0.37166794	0.21967234	1.254919	0.56131665
